<svg xmlns="http://www.w3.org/2000/svg" id="business-partnership" viewBox="0 0 3186.7 1759.93">
  <path d="M3295.59 1884a607.22 607.22 0 0 0 27.88-182.41c0-277.33-185.83-511.24-439.75-584a369.43 369.43 0 0 0 27.93-141.33c0-204.66-165.91-370.57-370.57-370.57a370.82 370.82 0 0 0-101.45 14.06c-137-220.43-381.33-367.22-660-367.22-360.32 0-663.29 245.43-751 578.22-417.6 12.88-752.19 355.41-752.19 776.13a774.63 774.63 0 0 0 51 277.17Z" style="fill:#00b2dc" transform="translate(-182.4 -124.07)"></path>
  <path d="M702.16 932.82h30.43v378.79h-30.43z" style="fill:#c1f0f1"></path>
  <path d="M732.59 932.82h30.43v378.79h-30.43z" style="fill:#a3e4e6"></path>
  <path d="M780.06 989.1h30.43v322.51h-30.43z" style="fill:#c1f0f1"></path>
  <path d="M810.5 989.1h31.65v322.51H810.5z" style="fill:#a3e4e6"></path>
  <path d="M857.97 863.56h30.43v448.05h-30.43z" style="fill:#c1f0f1"></path>
  <path d="M888.4 863.56h31.65v448.05H888.4z" style="fill:#a3e4e6"></path>
  <path d="M937.09 757.5h29.21v554.12h-29.21z" style="fill:#c1f0f1"></path>
  <path d="M966.31 757.5h31.65v554.12h-31.65z" style="fill:#a3e4e6"></path>
  <path d="M2179.94 769.71h30.43v576.15h-30.43z" style="fill:#c1f0f1"></path>
  <path d="M2210.38 769.71h30.43v576.15h-30.43z" style="fill:#a3e4e6"></path>
  <path d="M2257.85 855.31h30.43v490.55h-30.43z" style="fill:#c1f0f1"></path>
  <path d="M2288.28 855.31h31.65v490.55h-31.65z" style="fill:#a3e4e6"></path>
  <path d="M2335.75 589.7h32.76v756.16h-32.76z" style="fill:#c1f0f1"></path>
  <path d="M2368.52 589.7h34.08v756.16h-34.08z" style="fill:#a3e4e6"></path>
  <path d="M2901.05 1491.65s41-190.84 157-326.49" style="fill:none;stroke:#2b596e;stroke-width:8.49px;stroke-miterlimit:10" transform="translate(-182.4 -124.07)"></path>
  <circle cx="3065.28" cy="1159.7" r="20.99" style="fill:#2b596e" transform="rotate(-78.22 2897.862 1209.821)"></circle>
  <circle cx="2988.23" cy="1133.32" r="20.99" style="fill:#2b596e" transform="rotate(-78.22 2820.8 1183.446)"></circle>
  <circle cx="3066.91" cy="1302.3" r="20.99" style="fill:#2b596e" transform="rotate(-78.22 2899.496 1352.425)"></circle>
  <path d="M2996.77 1251.95s7.21-57.81-5.41-107.66M2964.56 1312.72s37.13-15.66 92-12.57M2819.21 1524.62s-25-193.59 39-360.18" style="fill:none;stroke:#2b596e;stroke-width:8.49px;stroke-miterlimit:10" transform="translate(-182.4 -124.07)"></path>
  <circle cx="2863.15" cy="1156.89" r="20.99" style="fill:#2b596e" transform="rotate(-7.73 1854.44 2445.05)"></circle>
  <circle cx="2781.71" cy="1157.76" r="20.99" style="fill:#2b596e" transform="rotate(-7.73 1772.976 2445.865)"></circle>
  <circle cx="2912.31" cy="1290.76" r="20.99" style="fill:#2b596e" transform="rotate(-7.73 1903.61 2578.924)"></circle>
  <path d="M2829.38 1266.72s-12.51-56.89-41.05-99.67M2819.32 1334.76s29.77-27.16 82.56-42.59" style="fill:none;stroke:#2b596e;stroke-width:8.49px;stroke-miterlimit:10" transform="translate(-182.4 -124.07)"></path>
  <path d="m2087.6 1290.28.07-.19.13-.36q.27-.73.52-1.47l.12-.36c.17-.5.33-1 .49-1.49l.12-.36.13-.4c.1-.31.19-.62.28-.92l.05-.17c0-.06 0-.11.05-.17l.26-.92c0-.14.07-.27.11-.4l.1-.35c.14-.51.27-1 .4-1.52l.09-.36q.19-.76.36-1.52l.08-.37v-.2l9.55-.82 7.15-.61a57 57 0 0 0 1.41-16.57l-6.95-1.82-9.28-2.42a.56.56 0 0 0 0-.1v-.38c0-.52-.06-1-.1-1.56v-.37c0-.52-.08-1-.13-1.57v-.32l-.07-.69c0-.23 0-.47-.08-.7v-.32c-.06-.52-.13-1-.2-1.56v-.37c-.07-.52-.15-1-.23-1.55l-.06-.37v-.11l8.55-4.31 6.43-3.24A57.16 57.16 0 0 0 2102 1223l-7.14.9-9.49 1.2-.08-.18-.16-.34c-.22-.47-.44-.94-.67-1.41l-.17-.34c-.23-.47-.46-.93-.7-1.4l-.17-.33-.19-.36-.46-.85-.08-.15-.09-.16-.2-.36-.26-.47-.21-.37-.18-.32c-.26-.46-.52-.91-.79-1.35l-.19-.32c-.27-.44-.54-.89-.82-1.32l-.2-.32-.11-.17 6.18-7.34 4.62-5.49a57.29 57.29 0 0 0-10.72-12.72l-6.2 3.63-8.28 4.85-.07-.07-.28-.25-1.17-1-.28-.24-1.2-1-.25-.2-.53-.44-.55-.44-.25-.2-1.25-1-.29-.23-1.26-.93-.31-.22-.09-.06 3-9.09 2.25-6.84a57.14 57.14 0 0 0-14.68-7.82l-4.42 5.68-5.87 7.56-.19-.07-.35-.13-1.47-.53-.35-.12-1.5-.5-.35-.11-.4-.13-.92-.28-.17-.05h-.16l-.92-.27-.41-.11-.36-.1-1.52-.39-.37-.09-1.51-.36-.37-.09h-.19l-.82-9.56-.62-7.15a57 57 0 0 0-16.57-1.41l-1.82 7-2.42 9.27h-.48l-1.57.1h-.37l-1.57.14h-.32l-.69.07-.7.08h-.31l-1.58.2h-.36l-1.56.24-.36.06h-.11l-4.31-8.55-3.24-6.43a57.14 57.14 0 0 0-15.91 4.85l.9 7.14 1.19 9.49-.19.09-.34.16-1.41.67-.33.16-1.41.71-.32.17-.37.19-.85.45-.14.08-.16.08-.84.46-.36.21-.32.18-1.36.8-.32.19-1.33.82-.32.2-.17.11-7.33-6.17-5.49-4.62a56.87 56.87 0 0 0-12.72 10.72l3.62 6.19 4.85 8.28-.08.08-.24.27c-.35.39-.7.78-1 1.18l-.24.28c-.34.4-.69.8-1 1.21l-.2.25-.44.54-.44.55-.2.25-1 1.25-.22.29c-.32.42-.63.84-.94 1.27l-.21.3-.07.09-9.09-3-6.84-2.25a57.15 57.15 0 0 0-7.82 14.68l5.68 4.42 7.56 5.87-.07.19-.13.36c-.18.49-.35 1-.52 1.46 0 .12-.08.24-.12.36-.17.49-.33 1-.49 1.48l-.12.36-.13.4c-.09.31-.19.61-.27.92v.16l-.05.17-.27.92-.11.4-.09.35c-.14.51-.27 1-.4 1.53l-.09.35c-.12.5-.25 1-.36 1.53l-.08.36v.2l-9.56.82-7.15.62a57.09 57.09 0 0 0-1.41 16.57l7 1.82 9.27 2.42v.49c0 .52.06 1 .1 1.56v.37q.06.78.13 1.57v.32c0 .11 0 .47.07.7s.06.46.08.69 0 .21 0 .31c.06.53.13 1.05.2 1.58v.35c.07.52.15 1 .24 1.57l.06.36a1 1 0 0 0 0 .11l-8.55 4.31-6.43 3.24a57.16 57.16 0 0 0 4.85 15.91l7.14-.9 9.49-1.19.09.19.16.34c.22.47.44.94.67 1.41l.17.34c.23.47.46.94.71 1.4l.17.33.19.37.45.85.08.15.08.16.21.37.26.47.2.36.17.31c.27.46.53.92.8 1.37l.19.31c.27.45.55.89.83 1.34l.2.31.11.18-6.17 7.33-4.62 5.49a56.88 56.88 0 0 0 10.72 12.71l6.19-3.62 8.28-4.85.08.07.28.25c.39.35.78.7 1.18 1l.28.24 1.21 1 .25.2.54.45.54.43.25.2 1.26 1 .28.22 1.27.94.3.21.09.07-3 9.09-2.25 6.84a57.15 57.15 0 0 0 14.68 7.82l4.42-5.68 5.87-7.56.19.07.36.14 1.46.52.36.12 1.48.49.36.12.41.13.92.28h.16l.17.06.92.26.4.11.34.09 1.53.4.35.09 1.53.36.36.08h.2l.82 9.55.61 7.15a57.37 57.37 0 0 0 16.57 1.41l1.82-6.95 2.42-9.28h.49l1.55-.1h.38l1.56-.13h.32l.69-.07.69-.08h.32l1.57-.2h.36l1.55-.23.37-.06h.11l4.31 8.55 3.24 6.43a57.16 57.16 0 0 0 15.91-4.85l-.9-7.14-1.2-9.49.18-.08.36-.17 1.4-.66.35-.17 1.38-.7.34-.18.38-.2.84-.45.16-.08.15-.09.84-.47.36-.2.32-.18 1.36-.79.32-.19 1.33-.82.32-.2.17-.11 7.33 6.17 5.5 4.63a57.29 57.29 0 0 0 12.72-10.72l-3.63-6.2-4.85-8.28.07-.08.26-.28 1-1.17.25-.29 1-1.2.21-.26.44-.54.43-.54.2-.25c.33-.41.65-.83 1-1.25l.23-.29.93-1.26.22-.31.06-.09 9.09 3 6.84 2.25a57.14 57.14 0 0 0 7.82-14.68l-5.68-4.42Zm-39-8.13a46.19 46.19 0 1 1-.34-44.08 46.2 46.2 0 0 1 .34 44.08ZM1586.59 1037.27v-.14l.1-.27q.2-.54.39-1.08l.09-.26c.12-.37.25-.73.36-1.1l.09-.26.09-.29.2-.68v-.24l.2-.68.08-.3.07-.26c.1-.37.2-.75.29-1.12l.07-.27q.14-.56.26-1.12l.06-.27v-.15l7.05-.61 5.28-.45a42.09 42.09 0 0 0 1-12.24l-5.13-1.34-6.85-1.79a.41.41 0 0 0 0-.08v-.28c0-.39 0-.77-.07-1.15v-.28c0-.39-.06-.77-.1-1.16v-.24l-.05-.51c0-.17 0-.34-.06-.51v-.24c0-.39-.09-.77-.15-1.15v-.27c-.05-.38-.11-.76-.17-1.15V1004.98l6.31-3.18 4.75-2.39a42.21 42.21 0 0 0-3.58-11.75l-5.28.66-7 .88-.06-.14-.12-.25-.49-1-.12-.25-.52-1-.13-.25-.14-.27-.34-.63-.06-.11-.07-.11-.15-.27-.19-.35-.15-.27-.14-.24c-.19-.34-.39-.67-.58-1l-.14-.24-.6-1-.15-.24-.08-.13 4.56-5.42 3.41-4.06a42.31 42.31 0 0 0-7.91-9.39l-4.58 2.68-6.12 3.58-.06-.05-.21-.19-.87-.76-.21-.18-.89-.75-.19-.15-.39-.33-.4-.32-.18-.15-.92-.71-.22-.17-.93-.69-.23-.16h-.06l2.22-6.71 1.67-5a42.2 42.2 0 0 0-10.84-5.78l-3.26 4.2-4.34 5.58h-.14l-.26-.09-1.09-.39-.26-.09-1.11-.37-.26-.08-.29-.09-.68-.2h-.24l-.68-.2-.3-.08-.26-.07-1.12-.29-.27-.07-1.12-.27-.28-.06h-.14l-.6-7.06-.45-5.28a42.08 42.08 0 0 0-12.24-1l-1.34 5.13-1.79 6.85H1524.43l-1.16.07h-.27l-1.16.1h-.23l-.51.05-.51.06h-.23l-1.16.15h-.26l-1.16.18h-.34l-3.18-6.31-2.39-4.75a42.21 42.21 0 0 0-11.75 3.58l.66 5.28.88 7-.14.07-.25.12-1 .49-.25.12-1 .52-.24.12-.27.14-.63.33-.1.06-.12.06-.62.34-.27.15-.23.13-1 .59-.23.14-1 .61-.23.15-.13.08-5.42-4.56-4.06-3.41a42 42 0 0 0-9.39 7.91l2.68 4.57 3.58 6.11-.06.06-.18.2-.77.87-.18.2-.75.89-.15.18-.33.4-.32.4-.14.18-.72.93-.16.21-.69.94-.16.22-.05.06-6.71-2.22-5-1.66a42.2 42.2 0 0 0-5.78 10.84l4.2 3.26 5.58 4.33v.14l-.1.27c-.13.36-.26.72-.38 1.08l-.09.27c-.13.36-.24.73-.36 1.1l-.09.26-.1.3-.2.68v.25l-.2.68-.08.29-.07.26c-.1.37-.2.75-.29 1.13l-.07.26c-.09.37-.18.75-.27 1.13l-.06.27v.15l-7.06.6-5.28.45a42.16 42.16 0 0 0-1 12.24l5.13 1.34 6.85 1.79V1018.65c0 .39 0 .77.07 1.16v.27q0 .58.1 1.16v.23c0 .07 0 .34.05.52s0 .34.06.51v.23c0 .39.09.78.15 1.16v.26c.05.39.11.77.17 1.16v.26a.78.78 0 0 0 0 .08l-6.31 3.18-4.75 2.39a42.22 42.22 0 0 0 3.58 11.75l5.28-.66 7-.88.07.14.12.25c.16.35.32.7.49 1l.12.25.52 1 .13.24.14.28.33.63.06.11.06.11.15.27.19.35.15.27.13.23.59 1 .14.23.61 1 .14.23.08.13-4.56 5.42-3.41 4.06a42 42 0 0 0 7.91 9.39l4.58-2.68 6.12-3.58.06.05.2.18.87.77.2.18.89.75.18.15.4.33.4.32.18.14.93.72.21.16.94.69.22.16.06.05-2.22 6.71-1.66 5a42.21 42.21 0 0 0 10.84 5.78l3.26-4.2 4.34-5.58.14.05.27.1 1.08.38.27.09 1.1.36.27.09.3.09.68.21h.25l.68.19.3.08.25.07 1.13.3.26.06 1.13.27.27.06h.15l.61 7.05.45 5.28a42.37 42.37 0 0 0 12.24 1l1.34-5.13 1.79-6.85h.36l1.15-.07h.28l1.15-.1h.75l.51-.06h.23l1.16-.15h.27l1.15-.17H1538.13l3.18 6.31 2.39 4.75a42.22 42.22 0 0 0 11.75-3.58l-.66-5.28-.88-7 .13-.06.26-.12 1-.49.26-.13 1-.52.25-.13.28-.15.62-.33.12-.06.11-.06.62-.34.27-.15.23-.13 1-.59.23-.14 1-.61.23-.15.13-.08 5.42 4.56 4.06 3.42a42.31 42.31 0 0 0 9.39-7.91l-2.68-4.58-3.58-6.12.05-.06.19-.21.76-.87.18-.21.75-.88.15-.19.33-.4.32-.4.15-.18.71-.92.17-.22.69-.93.16-.23v-.06l6.71 2.22 5 1.66a42.2 42.2 0 0 0 5.78-10.84l-4.2-3.26Zm-28.8-6a34.11 34.11 0 1 1-.25-32.56 34.12 34.12 0 0 1 .25 32.56ZM2138.4 1146v-.09l.07-.18.26-.73.06-.18c.08-.25.17-.5.25-.74l.06-.18.06-.2.14-.46v-.16l.13-.46.06-.2v-.18c.07-.25.14-.51.2-.76v-.18l.18-.76v-.28l4.78-.41 3.58-.31a28.51 28.51 0 0 0 .71-8.29l-3.48-.91-4.64-1.21a.28.28 0 0 0 0-.05v-1.16c0-.26 0-.52-.07-.78v-1.01c0-.26-.06-.52-.1-.78v-.19c0-.26-.08-.52-.12-.78v-.24l4.28-2.15 3.22-1.62a28.59 28.59 0 0 0-2.42-8l-3.57.45-4.75.6v-.09l-.08-.17-.33-.7-.08-.17-.35-.7-.09-.17-.09-.18-.23-.43v-.16l-.1-.18-.13-.24-.1-.18-.09-.16-.4-.68-.1-.16-.41-.66-.1-.16-.05-.09 3.09-3.67 2.31-2.75a28.66 28.66 0 0 0-5.36-6.36l-3.1 1.81-4.14 2.43-.14-.13-.59-.52-.14-.12-.6-.51-.13-.1-.27-.22-.27-.22-.12-.1-.63-.48-.15-.11-.63-.47-.15-.11 1.5-4.55 1.13-3.42a28.58 28.58 0 0 0-7.34-3.91l-2.21 2.84-2.94 3.78h-.09l-.18-.06-.74-.26-.17-.06-.75-.25-.18-.06-.2-.06-.46-.14h-.16l-.46-.13-.2-.05h-.18l-.76-.2h-.18l-.76-.18H2107.92l-.41-4.78-.31-3.58a28.5 28.5 0 0 0-8.29-.71l-.91 3.48-1.21 4.64h-1.2l-.79.07h-1.02l-.79.1h-.18l-.78.12H2091.8l-2.15-4.28-1.62-3.22a28.59 28.59 0 0 0-8 2.42l.45 3.57.6 4.75h-.09l-.17.08-.71.33-.17.08-.7.36-.16.08-.18.1-.42.23H2078.33l-.42.23-.18.1-.16.09-.68.4-.16.1-.67.41-.16.1-.09.05-3.67-3.09-2.75-2.31a28.45 28.45 0 0 0-6.36 5.36l1.81 3.1 2.43 4.14-.12.14-.52.59-.12.14-.51.61-.1.12-.22.27-.22.27-.1.12-.49.63-.11.14-.47.64-.11.15-4.55-1.5-3.42-1.13a28.59 28.59 0 0 0-4.21 7.49l2.84 2.21 3.78 2.94v.09l-.07.18-.26.73-.06.18c-.09.25-.17.49-.24.74l-.06.18-.06.2-.14.46V1119.08l-.13.46-.06.2v.17c-.07.25-.14.51-.2.76v.18l-.18.76v.28l-4.78.41-3.58.31a28.55 28.55 0 0 0-.71 8.29l3.48.91 4.64 1.21v1.22q0 .39.07.79v1.02c0 .26.06.53.1.79v.18c0 .26.08.52.12.78V1138.03l-4.28 2.15-3.22 1.62a28.6 28.6 0 0 0 2.42 8l3.57-.45 4.75-.6v.09l.08.17.33.71.08.17.35.7.09.16.1.19.23.42V1151.51l.1.19.13.24.1.18.09.15.4.68.09.15.41.67.1.15.06.09-3.09 3.67-2.31 2.75a28.46 28.46 0 0 0 5.36 6.36l3.1-1.81 4.14-2.43.14.12.59.52.14.12.61.51.12.1.27.22.27.22.12.1.63.49.14.11.64.47.15.11-1.5 4.55-1.13 3.42a28.58 28.58 0 0 0 7.34 3.91l2.21-2.84 2.94-3.78h.09l.18.07.73.26.18.06.74.24.18.06.2.06.46.14H2086.29l.46.13.2.06h.17l.77.2h.17l.77.18h.28l.41 4.78.31 3.58a28.71 28.71 0 0 0 8.29.71l.91-3.48 1.21-4.64h1.22l.78-.07h1.02l.79-.1h.18l.78-.12h.24l2.15 4.28 1.62 3.22a28.6 28.6 0 0 0 8-2.42l-.45-3.57-.6-4.75h.09l.18-.08.7-.33.18-.09.69-.35.17-.09.19-.1.42-.22h.16l.42-.23.18-.1.16-.09.68-.4.16-.09.67-.41.16-.1.09-.06 3.67 3.09 2.75 2.31a28.66 28.66 0 0 0 6.36-5.36l-1.81-3.1-2.43-4.14.13-.14.52-.59.12-.14.5-.6.1-.13.22-.27.22-.27.1-.12.48-.63.11-.15.47-.63.11-.15 4.55 1.5 3.42 1.13a28.58 28.58 0 0 0 3.91-7.34l-2.84-2.21Zm-19.51-4.07a23.11 23.11 0 1 1-.17-22.05 23.11 23.11 0 0 1 .17 22.06ZM1916.47 1142.53l.12-.32c.08-.21.16-.42.23-.63q.47-1.27.91-2.55l.21-.62c.29-.87.58-1.72.86-2.59l.2-.62c.07-.24.15-.47.22-.69.17-.54.33-1.07.48-1.61l.09-.29c0-.1.06-.19.09-.29l.46-1.6c.06-.24.13-.47.2-.7a.49.49 0 0 1 0-.06c.05-.21.11-.41.17-.61.25-.88.47-1.76.69-2.65l.16-.63q.32-1.32.62-2.65l.14-.64c0-.12.06-.23.08-.35l16.64-1.43 12.46-1.07c1.24-6.31 1.72-7.79 2.29-14.34s.33-8.09.17-14.52l-12.1-3.17-16.16-4.22a1 1 0 0 0 0-.18v-.66c-.05-.91-.1-1.81-.17-2.72v-.65c-.07-.91-.15-1.82-.23-2.73 0-.19 0-.37-.06-.56 0-.4-.08-.8-.12-1.2s-.08-.81-.13-1.21c0-.19 0-.37-.07-.56-.11-.91-.22-1.82-.34-2.71l-.09-.65c-.13-.9-.27-1.8-.41-2.7l-.11-.65v-.19l14.89-7.5 11.2-5.64c-1.19-6.32-1.3-7.87-3.21-14.16s-2.7-7.64-5.23-13.54l-12.44 1.56-16.53 2.08-.15-.32-.28-.6c-.38-.82-.77-1.64-1.16-2.45l-.29-.6c-.4-.81-.81-1.62-1.22-2.43l-.3-.58-.33-.63-.79-1.48-.14-.26c-.05-.09-.1-.18-.16-.27l-.35-.64-.45-.82-.36-.64-.32-.56c-.45-.79-.91-1.58-1.38-2.36-.11-.19-.22-.38-.34-.56-.47-.77-.94-1.54-1.42-2.31a6.65 6.65 0 0 0-.36-.56l-.19-.3 10.76-12.78 8.05-9.57c-3.58-5.34-4.29-6.73-8.52-11.75s-5.49-6-10.14-10.39l-10.79 6.32-14.42 8.44-.13-.13-.5-.44c-.67-.6-1.35-1.21-2-1.8l-.5-.42c-.7-.6-1.39-1.19-2.09-1.77l-.44-.36-.93-.77-1-.76-.44-.34c-.73-.57-1.45-1.13-2.18-1.69l-.51-.39c-.73-.55-1.46-1.09-2.19-1.62l-.69-.52-.15-.11 5.23-15.83 3.93-11.91c-5.31-3.62-6.48-4.65-12.28-7.74s-7.31-3.49-13.28-5.88l-7.69 9.9-10.22 13.16-.32-.12-.61-.22-2.57-.92-.61-.2c-.86-.3-1.73-.59-2.61-.86l-.61-.19h-.06l-.69-.22-1.61-.48-.29-.09-.28-.09-1.61-.46-.71-.19-.62-.17c-.88-.25-1.76-.47-2.64-.69l-.64-.16c-.88-.22-1.76-.43-2.64-.63l-.65-.15-.33-.08L1808 929l-1.07-12.45c-6.3-1.24-7.79-1.72-14.34-2.29s-8.09-.33-14.52-.17l-3.17 12.1-4.22 16.15H1769.84c-.91 0-1.82.1-2.73.17h-.64l-2.74.24-.55.05-1.21.12-1.21.13-.54.07c-.92.1-1.83.22-2.74.35l-.62.08-2.72.41-.62.1h-.19l-7.5-14.89-5.64-11.2c-6.32 1.19-7.88 1.29-14.16 3.21s-7.64 2.7-13.54 5.23L1714 939l2.08 16.53-.33.15-.59.28c-.82.38-1.64.76-2.46 1.17l-.58.28-2.45 1.24-.56.29h-.06l-.64.34-1.48.79-.24.13-.27.14-1.46.81-.63.36-.55.32-2.36 1.39-.55.33c-.78.46-1.55.94-2.32 1.43l-.55.35-.3.18-12.77-10.75-9.57-8.05c-5.34 3.58-6.74 4.29-11.76 8.52s-6 5.49-10.38 10.14l6.31 10.79 8.44 14.42-.13.14-.42.47c-.62.68-1.22 1.36-1.82 2.06l-.42.48c-.6.7-1.2 1.4-1.78 2.11l-.35.43-.77.94-.76 1-.34.43c-.57.73-1.13 1.45-1.69 2.18l-.38.5c-.56.73-1.1 1.47-1.64 2.21l-.37.52-.12.15-15.89-5.2-11.91-3.93c-3.62 5.31-4.65 6.48-7.74 12.28s-3.49 7.31-5.88 13.28l9.9 7.69 13.16 10.22-.12.32c-.08.21-.16.42-.23.63-.31.85-.61 1.69-.91 2.55-.07.21-.15.42-.21.63-.3.85-.58 1.72-.85 2.58-.07.21-.14.41-.2.62l-.23.7c-.16.53-.32 1.06-.48 1.6l-.08.28-.09.3-.46 1.61c-.06.24-.13.47-.19.69a.19.19 0 0 1 0 .07c0 .2-.11.4-.16.61-.24.88-.48 1.77-.69 2.66l-.16.62c-.22.88-.43 1.77-.63 2.66l-.14.63c0 .11-.06.23-.08.35l-16.71 1.45-12.45 1.07c-1.24 6.3-1.72 7.79-2.29 14.34s-.33 8.09-.17 14.52l12.11 3.16 16.15 4.22V1098.26c.05.91.1 1.82.17 2.73v.65q.1 1.36.23 2.74c0 .18 0 .37.05.55 0 .41.08.81.12 1.22s.1.8.14 1.21c0 .18 0 .36.07.54.1.92.22 1.83.35 2.74 0 .21.05.41.08.62.12.91.27 1.82.41 2.73l.1.62a1.84 1.84 0 0 0 0 .19l-14.89 7.5-11.2 5.64c1.19 6.32 1.29 7.88 3.21 14.16s2.7 7.64 5.23 13.54l12.44-1.56 16.53-2.08c.06.11.1.21.15.33l.28.59c.38.82.76 1.64 1.16 2.46.1.19.19.39.29.59.4.81.81 1.63 1.23 2.45l.3.57.34.65.79 1.48.14.26.14.27.36.65.46.82.35.63v.06l.3.54c.46.8.92 1.6 1.39 2.38l.32.54c.47.79 1 1.56 1.44 2.33l.34.54.19.31-10.75 12.77-8.05 9.57c3.58 5.34 4.29 6.74 8.52 11.76s5.49 6 10.14 10.38l10.79-6.31 14.42-8.44.14.12.48.43c.68.61 1.36 1.22 2.05 1.82l.48.42 2.11 1.78.43.35.95.78.95.76.43.34c.73.57 1.46 1.13 2.19 1.69l.49.38c.73.56 1.47 1.1 2.21 1.64l.52.37.15.12L1686 1227l-3.93 11.91c5.31 3.63 6.48 4.66 12.28 7.74s7.31 3.49 13.28 5.88l7.69-9.9 10.22-13.16.33.12.63.24 2.54.9.63.22c.86.29 1.72.58 2.58.85l.63.21.71.22 1.6.49.28.08.3.1 1.6.46.7.2h.06l.6.16c.89.25 1.78.48 2.67.7l.6.15 2.66.63.63.14.36.09 1.43 16.64 1.07 12.46c6.3 1.24 7.79 1.72 14.34 2.28s8.09.34 14.51.18l3.17-12.1 4.22-16.16H1785.24c.9 0 1.8-.1 2.71-.17h.66c.9-.07 1.81-.14 2.72-.23l.56-.06 1.21-.12 1.21-.14.55-.07c.92-.1 1.82-.22 2.73-.34l.64-.08 2.7-.41.65-.11h.19l7.5 14.89 5.64 11.2c6.32-1.19 7.87-1.3 14.16-3.21s7.64-2.7 13.54-5.23l-1.56-12.44-2.08-16.53.31-.14.62-.29 2.43-1.15.61-.3c.8-.4 1.61-.8 2.41-1.22l.6-.31.66-.35 1.46-.78.27-.14.27-.15 1.46-.81.63-.35h.06l.55-.32c.79-.45 1.59-.92 2.37-1.38l.55-.33 2.32-1.44.55-.34.3-.2 12.77 10.75 9.57 8.06c5.34-3.58 6.73-4.29 11.75-8.52s6-5.49 10.39-10.14l-6.32-10.79-8.44-14.42.12-.13.45-.49c.6-.67 1.21-1.35 1.8-2l.44-.5c.59-.69 1.18-1.39 1.76-2.08l.36-.45.77-.94.76-.95.34-.44c.57-.72 1.13-1.45 1.69-2.18l.39-.51c.55-.73 1.09-1.46 1.62-2.19.13-.19.26-.36.39-.53l.11-.15 15.83 5.23 11.91 3.93c3.62-5.31 4.65-6.48 7.74-12.28s3.49-7.31 5.88-13.28l-9.9-7.69Zm-67.92-14.16a80.44 80.44 0 1 1-.59-76.77 80.45 80.45 0 0 1 .59 76.77Z" style="fill:#00a7cf" transform="translate(-182.4 -124.07)"></path>
  <path d="M511.16 1326.38C396 1218.93 374.49 1054.72 374.49 1054.72l417.18 389.11s-165.31-10-280.51-117.45Z" style="fill:#3ac5c9" transform="translate(-182.4 -124.07)"></path>
  <path d="m791.66 1443.83-417.17-389.11s165.3 10 280.5 117.45 136.67 271.66 136.67 271.66Z" style="fill:#49e1e6" transform="translate(-182.4 -124.07)"></path>
  <path d="M610.58 1184c-38.65-152.72 32.23-302.39 32.23-302.39l140 553S649.23 1336.67 610.58 1184Z" style="fill:#3ac5c9" transform="translate(-182.4 -124.07)"></path>
  <path d="m782.77 1434.61-140-553S776.36 979.5 815 1132.22s-32.23 302.39-32.23 302.39Z" style="fill:#49e1e6" transform="translate(-182.4 -124.07)"></path>
  <path d="M813.36 1339.37c-143 0-263.64 95.93-301 226.95h602.04c-37.4-131.03-158.01-226.95-301.04-226.95ZM1634.64 1339.37c-143 0-263.64 95.93-301 226.95h602.08c-37.44-131.03-158.06-226.95-301.08-226.95Z" style="fill:#51cbe8" transform="translate(-182.4 -124.07)"></path>
  <path d="M1243.36 1242.14c-204.3 0-376.59 137-430 324.17h860c-53.41-187.15-225.7-324.17-430-324.17Z" style="fill:#51cbe8" transform="translate(-182.4 -124.07)"></path>
  <path d="M2394 1410.92c-98.76 0-182.05 66.24-207.88 156.72h415.75c-25.78-90.48-109.07-156.72-207.87-156.72ZM2961.16 1410.92c-98.76 0-182.05 66.24-207.88 156.72H3169c-25.79-90.48-109.08-156.72-207.84-156.72Z" style="fill:#007f9e" transform="translate(-182.4 -124.07)"></path>
  <path d="M2691 1343.79c-141.07 0-260 94.62-296.93 223.85h593.83C2951 1438.4 2832 1343.79 2691 1343.79Z" style="fill:#007f9e" transform="translate(-182.4 -124.07)"></path>
  <path d="M2638.1 1674.72H961.9a56.09 56.09 0 0 1 0-112.18h1676.2a56.09 56.09 0 0 1 0 112.18Z" style="fill:#008fb2" transform="translate(-182.4 -124.07)"></path>
  <path d="M387.77 221.9c-97.57 0-179.86 65.44-205.37 154.83h410.75c-25.51-89.38-107.8-154.83-205.38-154.83ZM948.06 221.9c-97.57 0-179.86 65.44-205.37 154.83h410.74c-25.51-89.38-107.8-154.83-205.37-154.83Z" style="fill:#c1f0f1" transform="translate(-182.4 -124.07)"></path>
  <path d="M681.13 155.58c-139.37 0-256.91 93.48-293.35 221.15h586.7C938 249.05 820.5 155.58 681.13 155.58Z" style="fill:#c1f0f1" transform="translate(-182.4 -124.07)"></path>
  <path d="M384.52 336.47a119.66 119.66 0 0 0-115 86.72h230.03a119.66 119.66 0 0 0-115.03-86.72ZM698.33 336.47a119.66 119.66 0 0 0-115 86.72h230.03a119.66 119.66 0 0 0-115.03-86.72Z" style="fill:#fff" transform="translate(-182.4 -124.07)"></path>
  <path d="M548.82 299.32a170.92 170.92 0 0 0-164.3 123.87h328.61a170.92 170.92 0 0 0-164.31-123.87Z" style="fill:#fff" transform="translate(-182.4 -124.07)"></path>
  <path d="M2941.66 773.3A119.27 119.27 0 0 0 2827 859.74h229.31a119.27 119.27 0 0 0-114.65-86.44ZM3254.45 773.3a119.27 119.27 0 0 0-114.65 86.43h229.31a119.27 119.27 0 0 0-114.66-86.43Z" style="fill:#c1f0f1" transform="translate(-182.4 -124.07)"></path>
  <path d="M3105.43 736.27a170.36 170.36 0 0 0-163.77 123.46h327.54a170.36 170.36 0 0 0-163.77-123.46Z" style="fill:#c1f0f1" transform="translate(-182.4 -124.07)"></path>
  <path d="M2193.73 194.2a73.59 73.59 0 0 0-70.73 53.33h141.48a73.59 73.59 0 0 0-70.75-53.33ZM2386.72 194.2a73.59 73.59 0 0 0-70.72 53.33h141.48a73.59 73.59 0 0 0-70.76-53.33Z" style="fill:#fff" transform="translate(-182.4 -124.07)"></path>
  <path d="M2294.78 171.35a105.12 105.12 0 0 0-101 76.18h202.09a105.12 105.12 0 0 0-101.09-76.18ZM1977.9 725.38a29.93 29.93 0 0 0 29.93-29.93 29.93 29.93 0 0 0 29.93 29.93 29.93 29.93 0 0 0-29.93 29.93 29.93 29.93 0 0 0-29.93-29.93ZM2789.39 986.49a29.93 29.93 0 0 0 29.93-29.93 29.93 29.93 0 0 0 29.93 29.93 29.93 29.93 0 0 0-29.93 29.93 29.93 29.93 0 0 0-29.93-29.93ZM1919 632.51a16.7 16.7 0 0 0 16.7-16.7 16.7 16.7 0 0 0 16.7 16.7 16.7 16.7 0 0 0-16.7 16.7 16.7 16.7 0 0 0-16.7-16.7ZM445.64 1421.45a16.7 16.7 0 0 0 16.7-16.7 16.7 16.7 0 0 0 16.7 16.7 16.7 16.7 0 0 0-16.7 16.7 16.7 16.7 0 0 0-16.7-16.7ZM1368.68 466.54a16.7 16.7 0 0 0 16.7-16.7 16.7 16.7 0 0 0 16.7 16.7 16.7 16.7 0 0 0-16.7 16.7 16.7 16.7 0 0 0-16.7-16.7Z" style="fill:#fff" transform="translate(-182.4 -124.07)"></path>
  <path d="M1560.31 688.18v404.64" style="stroke-width:5px;stroke-linecap:round;stroke-linejoin:round;stroke:#ff9f9c;fill:none"></path>
  <circle cx="1560.31" cy="1107.01" r="18.3" style="fill:#ff9f9c"></circle>
  <path d="M1998.9 380.25c0-145.51-121.31-262.68-268.31-255.9-132.23 6.1-239.12 114.16-243.89 246.45a255.46 255.46 0 0 0 86.47 201.43c33.79 29.85 52.36 73.34 52.36 118.43v6.8a34.39 34.39 0 0 0 34.38 34.38h165.59a34.39 34.39 0 0 0 34.38-34.38v-6.83a160.26 160.26 0 0 1 53.54-119.45 255.38 255.38 0 0 0 85.48-190.93Z" style="fill:#ffdddb" transform="translate(-182.4 -124.07)"></path>
  <path d="M1769.57 904.16h-53.7a26.6 26.6 0 0 1-26.6-26.6v-145.5a1.84 1.84 0 0 1 1.84-1.84h103.21a1.84 1.84 0 0 1 1.84 1.84v145.5a26.6 26.6 0 0 1-26.59 26.6Z" style="fill:#8385a3" transform="translate(-182.4 -124.07)"></path>
  <path d="M1803.2 876.21h-121a32.06 32.06 0 0 1-32.06-32.06V732.44a2.22 2.22 0 0 1 2.22-2.22H1833a2.22 2.22 0 0 1 2.22 2.22v111.7a32.06 32.06 0 0 1-32.02 32.07Z" style="fill:#3e4159" transform="translate(-182.4 -124.07)"></path>
  <rect width="218.18" height="27.21" x="1451.22" y="699.93" rx="13.61" ry="13.61" style="fill:#8385a3"></rect>
  <rect width="218.18" height="27.21" x="1451.22" y="660.65" rx="13.61" ry="13.61" style="fill:#8385a3"></rect>
  <rect width="218.18" height="27.21" x="1451.22" y="621.37" rx="13.61" ry="13.61" style="fill:#8385a3"></rect>
  <path d="M1775.54 527.17s20.22-110.43 1.67-131.77-49.69 81.59-25.87 145.14Z" style="fill:#fff" transform="translate(-182.4 -124.07)"></path>
  <path d="M1784.48 521.6c-17.57.59-35.06 1-51.09.72 7.49 289.42 113.94 487.95 416.32 339.13 46.25-22.76 33.3-29.92 20.91-57.74 1.82-8 2.18-5.12 0 0-12.38-27.82-22.81-42.52-63.43-18.37-265.59 157.88-277.49-43.08-322.71-263.74ZM2099.73 1280.16c-22.77 112.21-38.85 228.79-16.49 319.37h199.93c-7.43-78.79-7.26-171.41-.27-279.57-61.51-5.9-121.46-36.96-183.17-39.8Z" style="fill:#292b3b" transform="translate(-182.4 -124.07)"></path>
  <path d="M2312.51 1348.26c-29.75-7.85-61-11.15-132.92-5.68l-1.46.11c-53.06 4.13-94.24-45.56-79.65-96.74 59.18-207.74 60.87-316.8 43.47-380.19-10.13-37 .08-76.5 27.5-103.21l10.69-10.46c49.71-48.52 133.35-28.06 154.54 38.15a563.83 563.83 0 0 1 18.56 76.66c23.7 137.98 12.07 288.5-40.73 481.36Z" style="fill:#ffcecc" transform="translate(-182.4 -124.07)"></path>
  <path d="M2370.66 860.74c-5-29.06-2.74-45.39-9.85-67.52-16.78-52.42-46.14-81.54-93.38-65.07 18.52 104.14-118 728.41-116.53 728.29 72-5.47 114.32.52 144.07 8.37 52.8-192.81 99.4-466.09 75.69-604.07Z" style="fill:#292b3b" transform="translate(-182.4 -124.07)"></path>
  <path d="M2266.45 630.88c-17.31 63-75.25 102.09-113.78 91.52s-43-66.77-25.74-129.82 57.34-86.55 95.87-76 60.96 51.26 43.65 114.3Z" style="fill:#fff" transform="translate(-182.4 -124.07)"></path>
  <path d="m2256.24 634.26-68.64 1.46c.19 9.4 3.62 98.72 11 131.65 3.71 10 21.19 12.67 39 6 16-6 26.82-17.45 26.15-27h.08c-4.36-19.71-6.88-79.27-7.59-112.11ZM2404.78 1244s-96.78 57-100.78 85 94.21-15.81 126.68-75.41Z" style="fill:#fff" transform="translate(-182.4 -124.07)"></path>
  <path d="M2379.33 1251.54c12.74 12.11 25.32 24.26 36.33 35.92 201.11-208.26 268-423.36-50.09-534.63-48.66-17-44.68-2.76-55.83 25.57-7 4.29-5.18 2 0 0-11.15 28.33-14.33 46.07 31.38 58.11 298.79 78.69 163.88 228.08 38.21 415.03ZM2192 733.41a93.08 93.08 0 0 0-34.64 21.38l-10.69 10.46c-27.43 26.72-37.63 66.24-27.5 103.21 20.35 74.12 42 164.63-22.75 384.44 64.58-29.76 114.14-415.35 95.58-519.49ZM2254.42 669.34s-27.15 45.8-59.57 57.62c-34.9 12.72-64.35 6.23-75-21.73-2.59-6.82-6.32-34.7-2.59-45.23 0 0 5.53 26.47 15.65 36.36 5.81 5.68 28.29 15.8 48.53 6.46s38.56-37.63 44.32-42.82 34.74-.33 28.66 9.34ZM2259.61 642.87s-12.63-3.5-14.29-11.68 2.45-32.31 0-39.32-10.23-14.79-9.06-22.19-12.85-11.29-21.41-9-42 7.4-48.66-6.62-19.47-.78-21.8-10.12 20-41.27 50.47-40.1 84.62 13.24 87 63.07c-.06.09 32.64 43.26-22.25 75.96Z" style="fill:#292b3b" transform="translate(-182.4 -124.07)"></path>
  <path d="M2288.37 656c-4 14.67-23.75 29.44-34.38 26.52s-10-15.54-6-30.22 16.41-26 27-23.12 17.41 12.14 13.38 26.82Z" style="fill:#fff" transform="translate(-182.4 -124.07)"></path>
  <rect width="26.99" height="44.12" x="2180.78" y="591.87" rx="6.39" ry="6.39" style="fill:none;stroke-miterlimit:10;stroke:#292b3b;stroke-width:3.51px" transform="rotate(-69.29 2013.163 683.925)"></rect>
  <rect width="26.99" height="44.12" x="2122.63" y="569.88" rx="6.39" ry="6.39" style="fill:none;stroke-miterlimit:10;stroke:#292b3b;stroke-width:3.51px" transform="rotate(-69.29 1955.028 661.938)"></rect>
  <path d="m1992.51 478.7-16.88-6.38" style="fill:none;stroke-miterlimit:10;stroke:#292b3b;stroke-width:3.51px"></path>
  <path d="M1714.94 1371.6s116.2 25 139.38 6.06-84.71-55.24-152.73-32.1Z" style="fill:#fff" transform="translate(-182.4 -124.07)"></path>
  <path d="M1307.69 793.22c27.53 14.89 55.13 28.38 82.65 42.86-.12.44-.32 1-.44 1.45-88.69 314.87 50.67 428.45 346.52 497.13-7 19.1-14.29 38.26-20.9 57.38-317.94-54.35-452.35-218-420.73-539.44 2.49-25.14 2.8-37.25 12.9-59.38Z" style="fill:#292b3b" transform="translate(-182.4 -124.07)"></path>
  <path d="M1342.29 549.83s51.6 15.81 41.88 48.47-59.51-18.85-59.51-18.85-5.66-40.76 17.63-29.62Z" style="fill:#1a1c2e" transform="translate(-182.4 -124.07)"></path>
  <path d="M1283 1390c20.54 68.42 39.31 138.41 56.92 209.56h144.74c-11.1-87.09-25.68-174.78-47-264.57-51.74 17.46-103.4 35.67-154.66 55.01Z" style="fill:#ff9f9c" transform="translate(-182.4 -124.07)"></path>
  <path d="M1207.9 1599.53h150.62c18.32-71.16 37.85-141.14 59.23-209.56-53.31-19.31-107.07-37.51-160.93-55-22.2 89.77-37.38 177.46-48.92 264.56Z" style="fill:#ff9f9c" transform="translate(-182.4 -124.07)"></path>
  <path d="M1188.17 1545.55c53.64-3.25 140.66-34.25 195-23.22 4.18.93 8.71 1.62 13.58 2.21v-116.19l15.09 117.58c35.41 2.44 80.87-.32 97.59-5.89-29.49-162.42-80.29-453-88.53-609.28-3.25-62.58-23.8-95.78-46-112.85a87.27 87.27 0 0 0-16.25-9.75c-37.5-19.15-74.65-20.43-103.56-4.53-23.68 12.77-41.91 36.92-50.62 72-6.5 26-4.76 46.67-2.09 81.38 12.33 165.07 7.85 416.63-14.21 608.54Z" style="fill:#3e4159" transform="translate(-182.4 -124.07)"></path>
  <path d="m1374.9 798-3.17 105.38-3.89 132.31-55-123-57.76-129c29-15.87 66.06-14.64 103.54 4.51a84.05 84.05 0 0 1 16.28 9.8ZM1263.09 681.63c36.21 55.67 104.35 75.58 138.37 53.45s21-77.92-15.17-133.59-82.22-66.06-116.24-43.93-43.17 68.44-6.96 124.07Z" style="fill:#fff" transform="translate(-182.4 -124.07)"></path>
  <path d="m1271.15 672.41 69.42-6.78c.94 9.5 8.21 100 4.68 134.13-2.55 10.51-19.86 15.33-38.66 10.77-16.9-4.1-29.15-14.38-29.62-24h-.08c2.11-20.53-2.5-80.91-5.74-114.12Z" style="fill:#fff" transform="translate(-182.4 -124.07)"></path>
  <path d="M1297 700.69c10.23-11.07 19.86-1.1 44.49 12.73s68.66 10.26 71.72-47.38c1.3-24.39 10.86-6.1 17.14 8.95 4.61 11 7.31 23 6.35 34.88-1.48 18.45-9.85 31.15-25 41-22.67 14.74-56.32 15.79-89.29 3-17.52-6.79-30.21-23.41-29.16-42.17.28-4.61 1.42-8.49 3.75-11.01Z" style="fill:#1a1c2e" transform="translate(-182.4 -124.07)"></path>
  <path d="M1415.09 663.89s-.85.44-2.36 1.26c-12.13 6.57-67.13 37.44-72.71 60.19-6.27 25.59 29.58-9.89 40.42-26.29s24-14.19 35.75-17.64 17.18-18.18-1.1-17.52ZM1231.94 651.43s-11.43-43.32 8.09-74.34 74.73-63.78 118.45-22c0 0 28.34 32.53-13.79 63.39s-47.29 2.52-57.07 37.12-38.91 29-40.21 36.43Z" style="fill:#1a1c2e" transform="translate(-182.4 -124.07)"></path>
  <path d="m1189.33 779.28-3.9 132.32-54.99-123 2.15-80.29h24.27l32.47 70.97z" style="fill:#ffb0ad"></path>
  <path d="M1246.51 713.23c8.43 13 32.08 21.16 41.46 15.06s4.9-18.14-3.53-31.09-23.92-20.13-33.31-14-13.05 17.07-4.62 30.03ZM1695.34 568.65s12.73-118.54 38.52-136.47 26.7 95.26-17.46 155.63Z" style="fill:#fff" transform="translate(-182.4 -124.07)"></path>
  <path d="M1678.75 544.65c29.31 8.73 41.73 12.65 64.91 22.52-112.49 271.76-178.35 366.27-485.66 353.08-10.41-.45-53.65 2.5-49.88-40.06 3.84-43.34 50.09-36.42 126.85-39.6 209.43-8.67 264.31-61.23 343.78-295.94Z" style="fill:#292b3b" transform="translate(-182.4 -124.07)"></path>
  <path d="M1561.25 198.05v-88.98M1625.04 221.2l55.64-63.74M1652.86 281.03l97.42-12.55M1497.47 221.2l-55.64-63.74M1469.65 281.03l-97.42-12.55" style="fill:none;stroke-linecap:round;stroke-linejoin:round;stroke:#fff;stroke-width:7px"></path>
  <path d="M2323 530.5c0-37.69 24.32-59.27 56.53-59.27S2436 492.82 2436 530.5c0 38-24.32 59.27-56.53 59.27S2323 568.5 2323 530.5Zm181.46-56.23h51.36L2410.51 687h-51.37Zm-111.58 56.23c0-20.36-6.69-26.44-13.37-26.44s-13.37 6.08-13.37 26.44 6.69 26.45 13.37 26.45 13.37-6.08 13.37-26.45Zm86 100.3c0-37.69 24.32-59.27 56.53-59.27s56.59 21.59 56.59 59.28c0 38-24.32 59.27-56.54 59.27s-56.56-21.28-56.56-59.27Zm69.9 0c0-20.36-6.68-26.44-13.37-26.44s-13.37 6.08-13.37 26.44 6.69 26.45 13.37 26.45 13.39-6.08 13.39-26.44ZM1001.7 1378.43c0-23.8 15.35-37.43 35.7-37.43s35.7 13.63 35.7 37.43c0 24-15.35 37.43-35.7 37.43s-35.7-13.44-35.7-37.43Zm114.58-35.51h32.44L1057 1477.28h-32.44Zm-70.44 35.51c0-12.86-4.22-16.7-8.44-16.7s-8.44 3.84-8.44 16.7 4.22 16.7 8.44 16.7 8.44-3.84 8.44-16.7Zm54.32 63.34c0-23.8 15.35-37.43 35.7-37.43s35.7 13.63 35.7 37.43c0 24-15.35 37.43-35.7 37.43s-35.7-13.44-35.7-37.43Zm44.14 0c0-12.86-4.22-16.7-8.44-16.7s-8.44 3.84-8.44 16.7 4.22 16.7 8.44 16.7 8.44-3.84 8.44-16.7Z" style="fill:#008fb2" transform="translate(-182.4 -124.07)"></path>
  <path d="m2508.94 912.38 30.52 52.86h-61.04l30.52-52.86z" style="fill:#ff9f9c"></path>
  <path d="m2396.52 1438.49-1.84-234.1 58.58 58.57.61-218.17 54.09 54.08 1.05-154.89" style="stroke-width:11.9px;stroke-linecap:round;stroke-linejoin:round;stroke:#ff9f9c;fill:none"></path>
  <path d="M791.06 723.12h30.6v71.1h-30.6z" style="fill:#ff9f9c"></path>
  <path d="m806.36 697.99 31.99 31.66h-63.99l32-31.66zM791.06 583.17h30.6v71.1h-30.6z" style="fill:#ff9f9c"></path>
  <path d="m806.36 558.04 31.99 31.66h-63.99l32-31.66zM791.06 862.42h30.6v71.1h-30.6z" style="fill:#ff9f9c"></path>
  <path d="m806.36 837.3 31.99 31.66h-63.99l32-31.66z" style="fill:#ff9f9c"></path>
  <path d="M731.41 1511.67a116.79 116.79 0 0 0-112.27 84.64h224.55a116.79 116.79 0 0 0-112.28-84.64ZM1037.71 1511.67a116.79 116.79 0 0 0-112.27 84.64H1150a116.79 116.79 0 0 0-112.29-84.64Z" style="fill:#007f9e" transform="translate(-182.4 -124.07)"></path>
  <path d="M891.78 1475.41a166.83 166.83 0 0 0-160.37 120.9h320.74a166.83 166.83 0 0 0-160.37-120.9Z" style="fill:#007f9e" transform="translate(-182.4 -124.07)"></path>
  <path d="M1360.3 1343.21h24.36v125.46h-24.36zM1394.56 1310.08h24.36v158.58h-24.36zM1428.81 1281.4h24.36v187.26h-24.36zM1463.07 1301.94h24.36v166.72h-24.36zM1497.32 1315.89h24.36v152.78h-24.36zM1531.58 1266.51h24.36v202.15h-24.36zM1565.83 1286.04h24.36v182.63h-24.36zM1600.09 1315.89h24.36v152.78h-24.36zM1634.34 1343.21h24.36v125.46h-24.36zM1668.6 1297.39h24.36v171.28h-24.36zM1702.85 1234.97h24.36v233.7h-24.36zM1737.11 1212.85h24.36v255.81h-24.36zM1771.37 1246.12h24.36v222.54h-24.36zM1805.62 1222.53h24.36v246.13h-24.36z" style="fill:#ffcecc"></path>
  <path d="M1360.3 1434.75h24.36v33.91h-24.36zM1394.56 1417.66h24.36v51h-24.36zM1428.81 1434.75h24.36v33.91h-24.36zM1463.07 1401.03h24.36v67.63h-24.36zM1497.32 1411.69h24.36v56.97h-24.36zM1531.58 1396.24h24.36v72.42h-24.36zM1565.83 1417.66h24.36v51h-24.36zM1600.09 1385.3h24.36v83.36h-24.36zM1634.34 1411.69h24.36v56.97h-24.36zM1668.6 1392.27h24.36v76.39h-24.36zM1702.85 1351.81h24.36v116.85h-24.36zM1737.11 1328.04h24.36v140.63h-24.36zM1771.37 1345.6h24.36v123.07h-24.36zM1805.62 1286.04h24.36v182.63h-24.36z" style="fill:#ffaeab"></path>
  <path d="M2020.87 1543a116.79 116.79 0 0 0-112.27 84.64h224.55a116.79 116.79 0 0 0-112.28-84.64ZM2327.17 1543a116.79 116.79 0 0 0-112.27 84.64h224.55a116.79 116.79 0 0 0-112.28-84.64Z" style="fill:#ff9f9c" transform="translate(-182.4 -124.07)"></path>
  <path d="M2181.24 1506.78a166.83 166.83 0 0 0-160.37 120.9h320.74a166.83 166.83 0 0 0-160.37-120.9Z" style="fill:#ff9f9c" transform="translate(-182.4 -124.07)"></path>
</svg>
